<!-- <svg width="434" height="434" viewBox="0 0 434 434" xmlns="http://www.w3.org/2000/svg">
  <style>
    #base {
      fill: none;
    }
    #circle {
      fill: black;
      stroke: black;
    }
    #letterm {
      fill: black;
    }
    #lettert {
      fill: black;
    }
    @media (prefers-color-scheme: dark) {
      #base {
        fill: none;
      }
      #circle {
        fill: #fff;
        stroke: #fff;
      }
      #letterm {
        fill: #fff;
      }
      #lettert {
        fill: #fff;
      }
    }
  </style>
  <path id="base" width="434" height="434" />
  <path id="circle" d="M258.092 382.295C220.262 388.495 181.45 381.532 148.136 362.567C121.325 347.305 99.3801 325.014 84.5461 298.287L88.71 286.436C102.642 314.986 124.894 338.783 152.673 354.596C184.164 372.522 220.85 379.104 256.608 373.243C292.367 367.383 325.033 349.434 349.153 322.393C373.273 295.352 387.389 260.856 389.142 224.663C390.896 188.47 380.182 152.771 358.789 123.524C337.396 94.2783 306.618 73.2552 271.594 63.9646C236.57 54.6741 199.419 57.6784 166.343 72.4759C138.873 84.7654 115.594 104.571 99.0888 129.437L94.7588 119.559C111.963 95.5044 135.328 76.3032 162.597 64.1036C197.59 48.4488 236.893 45.2705 273.946 55.0992C310.999 64.928 343.56 87.169 366.192 118.109C388.824 149.05 400.159 186.817 398.304 225.107C396.448 263.396 381.515 299.891 355.998 328.498C330.48 357.105 295.922 376.094 258.092 382.295Z" stroke="black"/>
  <path id="letterm" d="M80 149L35 294H65L87 227.5L117 296.5L148 227.5L168.5 294H199L153.5 149L117 233.5L80 149Z"/>
  <path id="lettert" d="M297 151.5H186.5V177.5H229V294.5H255V177.5H297V151.5Z"/>
</svg> -->



<svg xmlns="http://www.w3.org/2000/svg" viewBox="0 0 134 134">
  <style>
    path {
      fill: black;
    }
    @media (prefers-color-scheme: dark) {
      path {
        fill: white;
      }
    }
  </style>
  <path
    d="M44.193 81.846c-10.615.683-20.248 4.726-25.714 19.13-.622 1.643-2.117 2.64-3.86 2.64-2.94 0-12.029-7.32-14.619-9.088.003 21.788 10.038 40.939 33.87 40.939 20.07 0 33.866-11.581 33.866-31.8 0-.823-.172-1.61-.257-2.416zM121.153 0c-4.011 0-7.771 1.775-10.64 4.352-54.083 48.313-59.71 49.448-59.71 63.67 0 3.625.86 7.08 2.31 10.24l16.885 14.07c1.908.476 3.874.801 5.924.801 16.433 0 25.958-12.03 55.87-67.855 1.952-3.796 3.677-7.898 3.677-12.168C135.47 5.461 128.59 0 121.153 0z"
  />
</svg>
